<?xml version="1.0" encoding="utf-8"?>
<!-- Generator: Adobe Illustrator 22.0.1, SVG Export Plug-In . SVG Version: 6.00 Build 0)  -->
<svg version="1.1" id="Ebene_3" xmlns="http://www.w3.org/2000/svg" xmlns:xlink="http://www.w3.org/1999/xlink" x="0px" y="0px"
	 viewBox="0 0 141.7 141.7" style="enable-background:new 0 0 141.7 141.7;" xml:space="preserve">
<style type="text/css">
	.st0{display:none;fill:#848484;stroke:#000000;stroke-miterlimit:10;}
	.st1{fill:#FFFFFF;}
</style>
<rect class="st0" width="141.7" height="141.7"/>
<g id="Ebene_1">
	<g>
		<path class="st1" d="M86.8,68.9v63.9h-7.1V68.9H86.8z"/>
	</g>
	<g>
		<path class="st1" d="M48.9,132.8L30.8,68.9h7.7l8.6,31.5c2.4,8.6,4.4,16.4,5.9,23.9h0.2c1.6-7.4,3.9-15.5,6.3-23.8l9.4-31.6h7.6
			l-19.8,63.9H48.9z"/>
	</g>
	<g>
		<path class="st1" d="M108,132.8L89.9,68.9h7.7l8.6,31.5c2.4,8.6,4.4,16.4,5.9,23.9h0.2c1.6-7.4,3.9-15.5,6.3-23.8l9.4-31.6h7.6
			l-19.8,63.9H108z"/>
	</g>
	<polygon class="st1" points="129.2,56.9 126.7,56.9 36.3,56.9 34.4,56.9 0.9,56.9 0.9,132.8 9.3,132.8 9.3,98.4 34.2,98.4 
		34.2,90.3 9.3,90.3 9.3,65.1 34.4,65.1 34.4,65.1 126.7,65.1 129.2,65.1 140.3,65.1 140.3,56.9 	"/>
	<polygon class="st1" points="87.9,44.1 84.4,36.2 85.4,36.2 85.4,34.7 83.7,34.7 80.1,26.8 78.6,26.8 82.2,34.7 81.3,34.7 
		81.3,36.2 82.8,36.2 86.3,44.1 76.9,44.1 74.6,32.9 75.9,32.9 75.9,31.3 74.3,31.3 73.3,26.6 71.9,26.6 72.9,31.3 71.7,31.3 
		71.7,32.9 73.2,32.9 75.4,44.1 64.3,44.1 64.9,40.8 66.3,40.8 66.3,39.3 65.1,39.3 67.1,26.6 65.7,26.6 63.6,39.3 62.2,39.3 
		62.2,40.8 63.3,40.8 62.8,44.1 54.1,44.1 60.9,29.5 62.4,29.5 62.4,27.9 61.6,27.9 62.1,26.8 60.6,26.8 60.1,27.9 58.2,27.9 
		58.2,29.5 59.4,29.5 52.4,44.1 	"/>
	<polygon class="st1" points="133.5,22.4 6,22.4 9.4,17.5 130.8,17.5 	"/>
	<path class="st1" d="M116.6,26.6c-12.5,0-22.7,5.6-22.7,12.5c0,6.9,10.2,12.5,22.7,12.5c12.5,0,22.7-5.6,22.7-12.5
		C139.3,32.2,129.2,26.6,116.6,26.6z M117.1,41.4c-4.2,0-7.6-2.2-7.6-5s3.4-5,7.6-5c4.2,0,7.6,2.2,7.6,5S121.3,41.4,117.1,41.4z"/>
	<path class="st1" d="M24.4,26.6c-12.8,0-23.2,5.6-23.2,12.5c0,6.9,10.4,12.5,23.2,12.5c12.8,0,23.2-5.6,23.2-12.5
		C47.5,32.2,37.2,26.6,24.4,26.6z M24.4,41.4c-4.2,0-7.6-2.2-7.6-5s3.4-5,7.6-5c4.2,0,7.6,2.2,7.6,5S28.6,41.4,24.4,41.4z"/>
	<polygon class="st1" points="49.7,51.6 91.1,51.6 88.7,46.4 51.8,46.4 	"/>
</g>
</svg>
