<svg version="1.1" xmlns="http://www.w3.org/2000/svg" xmlns:xlink="http://www.w3.org/1999/xlink" width="2028" height="1236"><defs/><g>

<g transform="translate(-14,-54) scale(1,1)"><rect fill="#C0C0C0" stroke="none" x="31" y="71" width="585.6" height="15" opacity="0.2"/></g><g transform="translate(-14,-54) scale(1,1)"><rect fill="#C0C0C0" stroke="none" x="31" y="85" width="1464" height="882" opacity="0.2"/></g><g transform="translate(-14,-54) scale(1,1)"><rect fill="#cbeafa" stroke="none" x="24" y="79" width="1464" height="881"/></g><g transform="translate(-14,-54) scale(1,1)"><path fill="none" stroke="#000000" d="M 24 79 L 1488 79 L 1488 960 L 24 960 L 24 79 Z Z" stroke-miterlimit="10"/></g><g transform="translate(-14,-54) scale(1,1)"><rect fill="#cbeafa" stroke="none" x="24" y="64" width="585.6" height="15"/></g><g transform="translate(-14,-54) scale(1,1)"><path fill="none" stroke="#000000" d="M 24 64 L 609.6 64 L 609.6 79 L 24 79 L 24 64 Z Z" stroke-miterlimit="10"/></g><g transform="translate(-14,-54) scale(1,1)"><rect fill="#cbeafa" stroke="none" x="24" y="78" width="1464" height="882"/></g><g transform="translate(-14,-54) scale(1,1)"><path fill="none" stroke="#000000" d="M 24 78 L 1488 78 L 1488 960 L 24 960 L 24 78 Z Z" stroke-miterlimit="10"/></g><g transform="translate(-14,-54) scale(1,1)"><g><path fill="none" stroke="none"/><text fill="#000000" stroke="none" font-family="Arial" font-size="13px" font-style="normal" font-weight="bold" text-decoration="none" x="669.763916015625" y="98.5">festivalManager.StaffManager</text></g></g><g transform="translate(-14,-54) scale(1,1)"><rect fill="#C0C0C0" stroke="none" x="1023" y="743" width="199" height="159" opacity="0.2"/></g><g transform="translate(-14,-54) scale(1,1)"><rect fill="#b5e6ce" stroke="none" x="1016" y="736" width="199" height="159"/></g><g transform="translate(-14,-54) scale(1,1)"><path fill="none" stroke="#000000" d="M 1016 736 L 1215 736 L 1215 895 L 1016 895 L 1016 736 Z Z" stroke-miterlimit="10"/></g><g transform="translate(-14,-54) scale(1,1)"><path fill="none" stroke="#000000" d="M 1016 761 L 1215 761" stroke-miterlimit="10"/></g><g transform="translate(-14,-54) scale(1,1)"><path fill="none" stroke="#000000" d="M 1016 771 L 1215 771" stroke-miterlimit="10"/></g><g transform="translate(-14,-54) scale(1,1)"><g><path fill="none" stroke="none"/><text fill="#000000" stroke="none" font-family="Arial" font-size="13px" font-style="normal" font-weight="bold" text-decoration="none" x="1075.766845703125" y="755.5">CreationForm</text></g></g><g transform="translate(-14,-54) scale(1,1)"><g><path fill="none" stroke="none"/><text fill="#000000" stroke="none" font-family="Arial" font-size="13px" font-style="normal" font-weight="normal" text-decoration="none" x="1021" y="788.5">+getName(): String</text></g></g><g transform="translate(-14,-54) scale(1,1)"><g><path fill="none" stroke="none"/><text fill="#000000" stroke="none" font-family="Arial" font-size="13px" font-style="normal" font-weight="normal" text-decoration="none" x="1021" y="803.5">+getPassword(): String</text></g></g><g transform="translate(-14,-54) scale(1,1)"><g><path fill="none" stroke="none"/><text fill="#000000" stroke="none" font-family="Arial" font-size="13px" font-style="normal" font-weight="normal" text-decoration="none" x="1021" y="818.5">+getFullName(): String</text></g></g><g transform="translate(-14,-54) scale(1,1)"><g><path fill="none" stroke="none"/><text fill="#000000" stroke="none" font-family="Arial" font-size="13px" font-style="normal" font-weight="normal" text-decoration="none" x="1021" y="833.5">+getRoles(): Role</text></g></g><g transform="translate(-14,-54) scale(1,1)"><rect fill="#C0C0C0" stroke="none" x="815" y="551" width="617.537109375" height="119" opacity="0.2"/></g><g transform="translate(-14,-54) scale(1,1)"><rect fill="#ffc082" stroke="none" x="808" y="544" width="617.537109375" height="119"/></g><g transform="translate(-14,-54) scale(1,1)"><path fill="none" stroke="#000000" d="M 808 544 L 1425.537109375 544 L 1425.537109375 663 L 808 663 L 808 544 Z Z" stroke-miterlimit="10"/></g><g transform="translate(-14,-54) scale(1,1)"><path fill="none" stroke="#000000" d="M 808 569 L 1425.537109375 569" stroke-miterlimit="10"/></g><g transform="translate(-14,-54) scale(1,1)"><path fill="none" stroke="#000000" d="M 808 579 L 1425.537109375 579" stroke-miterlimit="10"/></g><g transform="translate(-14,-54) scale(1,1)"><g><path fill="none" stroke="none"/><text fill="#000000" stroke="none" font-family="Arial" font-size="13px" font-style="normal" font-weight="bold" text-decoration="none" x="1067.628173828125" y="563.5">AccountManager</text></g></g><g transform="translate(-14,-54) scale(1,1)"><g><path fill="none" stroke="none"/><text fill="#000000" stroke="none" font-family="Arial" font-size="13px" font-style="normal" font-weight="normal" text-decoration="none" x="813" y="596.5">+AccountManager(accountRepository : AccountRepository, userAccountManager : UserAccountManager)</text></g></g><g transform="translate(-14,-54) scale(1,1)"><g><path fill="none" stroke="none"/><text fill="#000000" stroke="none" font-family="Arial" font-size="13px" font-style="normal" font-weight="normal" text-decoration="none" x="813" y="611.5">+createAccount(form: CreationForm, result: Errors)</text></g></g><g transform="translate(-14,-54) scale(1,1)"><g><path fill="none" stroke="none"/><text fill="#000000" stroke="none" font-family="Arial" font-size="13px" font-style="normal" font-weight="normal" text-decoration="none" x="813" y="626.5">+findAll(): Streamable</text></g></g><g transform="translate(-14,-54) scale(1,1)"><rect fill="#C0C0C0" stroke="none" x="71" y="559" width="638.00830078125" height="111" opacity="0.2"/></g><g transform="translate(-14,-54) scale(1,1)"><rect fill="#ffc082" stroke="none" x="64" y="552" width="638.00830078125" height="111"/></g><g transform="translate(-14,-54) scale(1,1)"><path fill="none" stroke="#000000" d="M 64 552 L 702.00830078125 552 L 702.00830078125 663 L 64 663 L 64 552 Z Z" stroke-miterlimit="10"/></g><g transform="translate(-14,-54) scale(1,1)"><path fill="none" stroke="#000000" d="M 64 577 L 702.00830078125 577" stroke-miterlimit="10"/></g><g transform="translate(-14,-54) scale(1,1)"><path fill="none" stroke="#000000" d="M 64 587 L 702.00830078125 587" stroke-miterlimit="10"/></g><g transform="translate(-14,-54) scale(1,1)"><g><path fill="none" stroke="none"/><text fill="#000000" stroke="none" font-family="Arial" font-size="13px" font-style="normal" font-weight="bold" text-decoration="none" x="320.14013671875" y="571.5">AccountDataInitializer</text></g></g><g transform="translate(-14,-54) scale(1,1)"><g><path fill="none" stroke="none"/><text fill="#000000" stroke="none" font-family="Arial" font-size="13px" font-style="normal" font-weight="normal" text-decoration="none" x="69" y="604.5">+AccountDataInitializer(userAccountManager: UserAccountManager, accountRepository: AccountRepository)</text></g></g><g transform="translate(-14,-54) scale(1,1)"><g><path fill="none" stroke="none"/><text fill="#000000" stroke="none" font-family="Arial" font-size="13px" font-style="normal" font-weight="normal" text-decoration="none" x="69" y="619.5">+Initialize(): void</text></g></g><g transform="translate(-14,-54) scale(1,1)"><rect fill="#C0C0C0" stroke="none" x="423" y="799" width="232" height="40" opacity="0.2"/></g><g transform="translate(-14,-54) scale(1,1)"><rect fill="#b5e6ce" stroke="none" x="416" y="792" width="232" height="40"/></g><g transform="translate(-14,-54) scale(1,1)"><path fill="none" stroke="#000000" d="M 416 792 L 648 792 L 648 832 L 416 832 L 416 792 Z Z" stroke-miterlimit="10"/></g><g transform="translate(-14,-54) scale(1,1)"><path fill="#b5e6ce" stroke="none" d="M 622 809 C 622 804.0294368 626.0294368 800 631 800 C 635.9705632 800 640 804.0294368 640 809 C 640 813.9705632 635.9705632 818 631 818 C 626.0294368 818 622 813.9705632 622 809 Z"/></g><g transform="translate(-14,-54) scale(1,1)"><path fill="none" stroke="#000000" d="M 622 809 C 622 804.0294368 626.0294368 800 631 800 C 635.9705632 800 640 804.0294368 640 809 C 640 813.9705632 635.9705632 818 631 818 C 626.0294368 818 622 813.9705632 622 809 Z" stroke-miterlimit="10"/></g><g transform="translate(-14,-54) scale(1,1)"><g><path fill="none" stroke="none"/><text fill="#000000" stroke="none" font-family="Arial" font-size="13px" font-style="normal" font-weight="bold" text-decoration="none" x="465.445068359375" y="811.5">AccountRepository</text></g></g><g transform="translate(-14,-54) scale(1,1)"><rect fill="#C0C0C0" stroke="none" x="919" y="207" width="406.71240234375" height="177" opacity="0.2"/></g><g transform="translate(-14,-54) scale(1,1)"><rect fill="#ffc082" stroke="none" x="912" y="200" width="406.71240234375" height="177"/></g><g transform="translate(-14,-54) scale(1,1)"><path fill="none" stroke="#000000" d="M 912 200 L 1318.71240234375 200 L 1318.71240234375 377 L 912 377 L 912 200 Z Z" stroke-miterlimit="10"/></g><g transform="translate(-14,-54) scale(1,1)"><path fill="none" stroke="#000000" d="M 912 225 L 1318.71240234375 225" stroke-miterlimit="10"/></g><g transform="translate(-14,-54) scale(1,1)"><path fill="none" stroke="#000000" d="M 912 235 L 1318.71240234375 235" stroke-miterlimit="10"/></g><g transform="translate(-14,-54) scale(1,1)"><g><path fill="none" stroke="none"/><text fill="#000000" stroke="none" font-family="Arial" font-size="13px" font-style="normal" font-weight="bold" text-decoration="none" x="1063.692626953125" y="219.5">AccountController</text></g></g><g transform="translate(-14,-54) scale(1,1)"><g><path fill="none" stroke="none"/><text fill="#000000" stroke="none" font-family="Arial" font-size="13px" font-style="normal" font-weight="normal" text-decoration="none" x="917" y="252.5">+AccountController(accountManager: AccountManager)</text></g></g><g transform="translate(-14,-54) scale(1,1)"><g><path fill="none" stroke="none"/><text fill="#000000" stroke="none" font-family="Arial" font-size="13px" font-style="normal" font-weight="normal" text-decoration="none" x="917" y="267.5">+createAccountNew(form: CreationForm, model Model, result Errors)</text></g></g><g transform="translate(-14,-54) scale(1,1)"><g><path fill="none" stroke="none"/><text fill="#000000" stroke="none" font-family="Arial" font-size="13px" font-style="normal" font-weight="normal" text-decoration="none" x="917" y="282.5">+createAccount(form CreationForm, model Model, result: Errors)</text></g></g><g transform="translate(-14,-54) scale(1,1)"><g><path fill="none" stroke="none"/><text fill="#000000" stroke="none" font-family="Arial" font-size="13px" font-style="normal" font-weight="normal" text-decoration="none" x="917" y="297.5">+showAccounts(): Streamable</text></g></g><g transform="translate(-14,-54) scale(1,1)"><g><path fill="none" stroke="none"/><text fill="#000000" stroke="none" font-family="Arial" font-size="13px" font-style="normal" font-weight="normal" text-decoration="none" x="917" y="312.5">+showLoggedinAccounts(): Streamable</text></g></g><g transform="translate(-14,-54) scale(1,1)"><rect fill="#C0C0C0" stroke="none" x="135" y="175" width="365.2060546875" height="205" opacity="0.2"/></g><g transform="translate(-14,-54) scale(1,1)"><rect fill="#ffc082" stroke="none" x="128" y="168" width="365.2060546875" height="205"/></g><g transform="translate(-14,-54) scale(1,1)"><path fill="none" stroke="#000000" d="M 128 168 L 493.2060546875 168 L 493.2060546875 373 L 128 373 L 128 168 Z Z" stroke-miterlimit="10"/></g><g transform="translate(-14,-54) scale(1,1)"><path fill="none" stroke="#000000" d="M 128 193 L 493.2060546875 193" stroke-miterlimit="10"/></g><g transform="translate(-14,-54) scale(1,1)"><path fill="none" stroke="#000000" d="M 128 276 L 493.2060546875 276" stroke-miterlimit="10"/></g><g transform="translate(-14,-54) scale(1,1)"><g><path fill="none" stroke="none"/><text fill="#000000" stroke="none" font-family="Arial" font-size="13px" font-style="normal" font-weight="bold" text-decoration="none" x="287.11669921875" y="187.5">Account</text></g></g><g transform="translate(-14,-54) scale(1,1)"><g><path fill="none" stroke="none"/><text fill="#000000" stroke="none" font-family="Arial" font-size="13px" font-style="normal" font-weight="normal" text-decoration="none" x="133" y="210.5">-id: long</text></g></g><g transform="translate(-14,-54) scale(1,1)"><g><path fill="none" stroke="none"/><text fill="#000000" stroke="none" font-family="Arial" font-size="13px" font-style="normal" font-weight="normal" text-decoration="none" x="133" y="225.5">-fullName: String</text></g></g><g transform="translate(-14,-54) scale(1,1)"><g><path fill="none" stroke="none"/><text fill="#000000" stroke="none" font-family="Arial" font-size="13px" font-style="normal" font-weight="normal" text-decoration="none" x="133" y="240.5">-hourlyWage: int</text></g></g><g transform="translate(-14,-54) scale(1,1)"><g><path fill="none" stroke="none"/><text fill="#000000" stroke="none" font-family="Arial" font-size="13px" font-style="normal" font-weight="normal" text-decoration="none" x="133" y="255.5">+hoursWorked: int</text></g></g><g transform="translate(-14,-54) scale(1,1)"><g><path fill="none" stroke="none"/><text fill="#000000" stroke="none" font-family="Arial" font-size="13px" font-style="normal" font-weight="normal" text-decoration="none" x="133" y="270.5">+roles: Role</text></g></g><g transform="translate(-14,-54) scale(1,1)"><g><path fill="none" stroke="none"/><text fill="#000000" stroke="none" font-family="Arial" font-size="13px" font-style="normal" font-weight="normal" text-decoration="none" x="133" y="293.5">-Customer()</text></g></g><g transform="translate(-14,-54) scale(1,1)"><g><path fill="none" stroke="none"/><text fill="#000000" stroke="none" font-family="Arial" font-size="13px" font-style="normal" font-weight="normal" text-decoration="none" x="133" y="308.5">+Customer(userAccount: UserAccount, fullName: String)</text></g></g><g transform="translate(-14,-54) scale(1,1)"><g><path fill="none" stroke="none"/><text fill="#000000" stroke="none" font-family="Arial" font-size="13px" font-style="normal" font-weight="normal" text-decoration="none" x="133" y="323.5">+getId(): long</text></g></g><g transform="translate(-14,-54) scale(1,1)"><g><path fill="none" stroke="none"/><text fill="#000000" stroke="none" font-family="Arial" font-size="13px" font-style="normal" font-weight="normal" text-decoration="none" x="133" y="338.5">+getFullName(): String</text></g></g><g transform="translate(-14,-54) scale(1,1)"><g><path fill="none" stroke="none"/><text fill="#000000" stroke="none" font-family="Arial" font-size="13px" font-style="normal" font-weight="normal" text-decoration="none" x="133" y="353.5">+setFullName(): void</text></g></g><g transform="translate(-14,-54) scale(1,1)"><g><path fill="none" stroke="none"/><text fill="#000000" stroke="none" font-family="Arial" font-size="13px" font-style="normal" font-weight="normal" text-decoration="none" x="133" y="368.5">+messages()</text></g></g><g transform="translate(-14,-54) scale(1,1)"><path fill="none" stroke="#000000" d="M 1115 378 L 1116 543" stroke-miterlimit="10"/></g><g transform="translate(-14,-54) scale(1,1)"><path fill="none" stroke="#000000" d="M 1111.7289687139391 532.8630235398573 L 1116 543 L 1120.1478496106618 532.8120000192711" stroke-miterlimit="10"/></g><g transform="translate(-14,-54) scale(1,1)"><g><path fill="none" stroke="none"/><text fill="#000000" stroke="none" font-family="Arial" font-size="13px" font-style="normal" font-weight="normal" text-decoration="none" x="1119.5" y="543.5">-AccountManager 1</text></g></g><g transform="translate(-14,-54) scale(1,1)"><path fill="none" stroke="#000000" d="M 1116 664 L 1115 735" stroke-miterlimit="10" stroke-dasharray="3"/></g><g transform="translate(-14,-54) scale(1,1)"><path fill="none" stroke="#000000" d="M 1110.9340217804229 724.7790498916233 L 1115 735 L 1119.3522223605828 724.8976160969777" stroke-miterlimit="10"/></g><g transform="translate(-14,-54) scale(1,1)"><path fill="none" stroke="#000000" d="M 965 663 L 965 792 L 648 792" stroke-miterlimit="10"/></g><g transform="translate(-14,-54) scale(1,1)"><path fill="none" stroke="#000000" d="M 658.1626748576241 787.790482243984 L 648 792 L 658.1626748576241 796.209517756016" stroke-miterlimit="10"/></g><g transform="translate(-14,-54) scale(1,1)"><g><path fill="none" stroke="none"/><text fill="#000000" stroke="none" font-family="Arial" font-size="13px" font-style="normal" font-weight="normal" text-decoration="none" x="655.5" y="812.5">-accountRepository</text></g></g><g transform="translate(-14,-54) scale(1,1)"><path fill="none" stroke="#000000" d="M 419 663 L 419 792" stroke-miterlimit="10"/></g><g transform="translate(-14,-54) scale(1,1)"><path fill="none" stroke="#000000" d="M 414.790482243984 781.8373251423759 L 419 792 L 423.209517756016 781.8373251423759" stroke-miterlimit="10"/></g><g transform="translate(-14,-54) scale(1,1)"><g><path fill="none" stroke="none"/><text fill="#000000" stroke="none" font-family="Arial" font-size="13px" font-style="normal" font-weight="normal" text-decoration="none" x="424.13134765625" y="780.5">-accountRepository</text></g></g><g transform="translate(-14,-54) scale(1,1)"><path fill="none" stroke="#000000" d="M 848 544 L 848 304 L 493 304" stroke-miterlimit="10" stroke-dasharray="3"/></g><g transform="translate(-14,-54) scale(1,1)"><path fill="none" stroke="#000000" d="M 503.16267485762415 299.790482243984 L 493 304 L 503.16267485762415 308.209517756016" stroke-miterlimit="10"/></g><g transform="translate(-14,-54) scale(1,1)"><rect fill="#C0C0C0" stroke="none" x="31" y="1055" width="348.4" height="15" opacity="0.2"/></g><g transform="translate(-14,-54) scale(1,1)"><rect fill="#C0C0C0" stroke="none" x="31" y="1069" width="871" height="218" opacity="0.2"/></g><g transform="translate(-14,-54) scale(1,1)"><rect fill="#cbeafa" stroke="none" x="24" y="1063" width="871" height="217"/></g><g transform="translate(-14,-54) scale(1,1)"><path fill="none" stroke="#000000" d="M 24 1063 L 895 1063 L 895 1280 L 24 1280 L 24 1063 Z Z" stroke-miterlimit="10"/></g><g transform="translate(-14,-54) scale(1,1)"><rect fill="#cbeafa" stroke="none" x="24" y="1048" width="348.4" height="15"/></g><g transform="translate(-14,-54) scale(1,1)"><path fill="none" stroke="#000000" d="M 24 1048 L 372.4 1048 L 372.4 1063 L 24 1063 L 24 1048 Z Z" stroke-miterlimit="10"/></g><g transform="translate(-14,-54) scale(1,1)"><rect fill="#cbeafa" stroke="none" x="24" y="1062" width="871" height="218"/></g><g transform="translate(-14,-54) scale(1,1)"><path fill="none" stroke="#000000" d="M 24 1062 L 895 1062 L 895 1280 L 24 1280 L 24 1062 Z Z" stroke-miterlimit="10"/></g><g transform="translate(-14,-54) scale(1,1)"><g><path fill="none" stroke="none"/><text fill="#000000" stroke="none" font-family="Arial" font-size="13px" font-style="normal" font-weight="bold" text-decoration="none" x="429.1455078125" y="1082.5">Salespoint</text></g></g><g transform="translate(-14,-54) scale(1,1)"><rect fill="#C0C0C0" stroke="none" x="39" y="1159" width="191" height="71" opacity="0.2"/></g><g transform="translate(-14,-54) scale(1,1)"><rect fill="#ffc082" stroke="none" x="32" y="1152" width="191" height="71"/></g><g transform="translate(-14,-54) scale(1,1)"><path fill="none" stroke="#000000" d="M 32 1152 L 223 1152 L 223 1223 L 32 1223 L 32 1152 Z Z" stroke-miterlimit="10"/></g><g transform="translate(-14,-54) scale(1,1)"><g><path fill="none" stroke="none"/><text fill="#000000" stroke="none" font-family="Arial" font-size="13px" font-style="normal" font-weight="bold" text-decoration="none" x="114.1318359375" y="1171.5">Role</text></g></g><g transform="translate(-14,-54) scale(1,1)"><rect fill="#C0C0C0" stroke="none" x="257" y="1159" width="191" height="71" opacity="0.2"/></g><g transform="translate(-14,-54) scale(1,1)"><rect fill="#ffc082" stroke="none" x="250" y="1152" width="191" height="71"/></g><g transform="translate(-14,-54) scale(1,1)"><path fill="none" stroke="#000000" d="M 250 1152 L 441 1152 L 441 1223 L 250 1223 L 250 1152 Z Z" stroke-miterlimit="10"/></g><g transform="translate(-14,-54) scale(1,1)"><g><path fill="none" stroke="none"/><text fill="#000000" stroke="none" font-family="Arial" font-size="13px" font-style="normal" font-weight="bold" text-decoration="none" x="308.2900390625" y="1171.5">UserAccount</text></g></g><g transform="translate(-14,-54) scale(1,1)"><rect fill="#C0C0C0" stroke="none" x="693" y="1159" width="191" height="71" opacity="0.2"/></g><g transform="translate(-14,-54) scale(1,1)"><rect fill="#b5e6ce" stroke="none" x="686" y="1152" width="191" height="71"/></g><g transform="translate(-14,-54) scale(1,1)"><path fill="none" stroke="#000000" d="M 686 1152 L 877 1152 L 877 1223 L 686 1223 L 686 1152 Z Z" stroke-miterlimit="10"/></g><g transform="translate(-14,-54) scale(1,1)"><path fill="#b5e6ce" stroke="none" d="M 851 1169 C 851 1164.0294368 855.0294368 1160 860 1160 C 864.9705632 1160 869 1164.0294368 869 1169 C 869 1173.9705632 864.9705632 1178 860 1178 C 855.0294368 1178 851 1173.9705632 851 1169 Z"/></g><g transform="translate(-14,-54) scale(1,1)"><path fill="none" stroke="#000000" d="M 851 1169 C 851 1164.0294368 855.0294368 1160 860 1160 C 864.9705632 1160 869 1164.0294368 869 1169 C 869 1173.9705632 864.9705632 1178 860 1178 C 855.0294368 1178 851 1173.9705632 851 1169 Z" stroke-miterlimit="10"/></g><g transform="translate(-14,-54) scale(1,1)"><g><path fill="none" stroke="none"/><text fill="#000000" stroke="none" font-family="Arial" font-size="13px" font-style="normal" font-weight="bold" text-decoration="none" x="706.635986328125" y="1171.5">UserAccountManager</text></g></g><g transform="translate(-14,-54) scale(1,1)"><rect fill="#C0C0C0" stroke="none" x="475" y="1159" width="191" height="71" opacity="0.2"/></g><g transform="translate(-14,-54) scale(1,1)"><rect fill="#b5e6ce" stroke="none" x="468" y="1152" width="191" height="71"/></g><g transform="translate(-14,-54) scale(1,1)"><path fill="none" stroke="#000000" d="M 468 1152 L 659 1152 L 659 1223 L 468 1223 L 468 1152 Z Z" stroke-miterlimit="10"/></g><g transform="translate(-14,-54) scale(1,1)"><path fill="#b5e6ce" stroke="none" d="M 633 1169 C 633 1164.0294368 637.0294368 1160 642 1160 C 646.9705632 1160 651 1164.0294368 651 1169 C 651 1173.9705632 646.9705632 1178 642 1178 C 637.0294368 1178 633 1173.9705632 633 1169 Z"/></g><g transform="translate(-14,-54) scale(1,1)"><path fill="none" stroke="#000000" d="M 633 1169 C 633 1164.0294368 637.0294368 1160 642 1160 C 646.9705632 1160 651 1164.0294368 651 1169 C 651 1173.9705632 646.9705632 1178 642 1178 C 637.0294368 1178 633 1173.9705632 633 1169 Z" stroke-miterlimit="10"/></g><g transform="translate(-14,-54) scale(1,1)"><g><path fill="none" stroke="none"/><text fill="#000000" stroke="none" font-family="Arial" font-size="13px" font-style="normal" font-weight="bold" text-decoration="none" x="512.122314453125" y="1171.5">DataInitializer</text></g></g><g transform="translate(-14,-54) scale(1,1)"><path fill="none" stroke="#000000" d="M 880 663 L 880 1000 L 168 1000 L 168 1152" stroke-miterlimit="10" stroke-dasharray="3"/></g><g transform="translate(-14,-54) scale(1,1)"><path fill="none" stroke="#000000" d="M 163.790482243984 1141.837325142376 L 168 1152 L 172.209517756016 1141.837325142376" stroke-miterlimit="10"/></g><g transform="translate(-14,-54) scale(1,1)"><path fill="none" stroke="#000000" d="M 168 663 L 168 1152" stroke-miterlimit="10" stroke-dasharray="3"/></g><g transform="translate(-14,-54) scale(1,1)"><path fill="none" stroke="#000000" d="M 163.790482243984 1141.837325142376 L 168 1152 L 172.209517756016 1141.837325142376" stroke-miterlimit="10"/></g><g transform="translate(-14,-54) scale(1,1)"><path fill="none" stroke="#000000" d="M 128 272 L 40 272 L 40 1024 L 344 1024 L 344 1152" stroke-miterlimit="10"/></g><g transform="translate(-14,-54) scale(1,1)"><path fill="none" stroke="#000000" d="M 339.790482243984 1141.837325142376 L 344 1152 L 348.209517756016 1141.837325142376" stroke-miterlimit="10"/></g><g transform="translate(-14,-54) scale(1,1)"><g><path fill="none" stroke="none"/><text fill="#000000" stroke="none" font-family="Arial" font-size="13px" font-style="normal" font-weight="normal" text-decoration="none" x="343.5" y="1155.5">-userAccount 1</text></g></g><g transform="translate(-14,-54) scale(1,1)"><path fill="none" stroke="#000000" d="M 686 663 L 686 1152" stroke-miterlimit="10"/></g><g transform="translate(-14,-54) scale(1,1)"><path fill="none" stroke="#000000" d="M 681.790482243984 1141.837325142376 L 686 1152 L 690.209517756016 1141.837325142376" stroke-miterlimit="10"/></g><g transform="translate(-14,-54) scale(1,1)"><g><path fill="none" stroke="none"/><text fill="#000000" stroke="none" font-family="Arial" font-size="13px" font-style="normal" font-weight="normal" text-decoration="none" x="694.5" y="1139.5">-userAccountManager 1</text></g></g><g transform="translate(-14,-54) scale(1,1)"><path fill="none" stroke="#000000" d="M 920 663 L 920 1024 L 784 1024 L 784 1152" stroke-miterlimit="10"/></g><g transform="translate(-14,-54) scale(1,1)"><path fill="none" stroke="#000000" d="M 779.790482243984 1141.837325142376 L 784 1152 L 788.209517756016 1141.837325142376" stroke-miterlimit="10"/></g><g transform="translate(-14,-54) scale(1,1)"><g><path fill="none" stroke="none"/><text fill="#000000" stroke="none" font-family="Arial" font-size="13px" font-style="normal" font-weight="normal" text-decoration="none" x="790.5" y="1131.5">-userAccountManager 1</text></g></g><g transform="translate(-14,-54) scale(1,1)"><path fill="none" stroke="#000000" d="M 128 288 L 56 288 L 56 936 L 544 936 L 544 1152" stroke-miterlimit="10" stroke-dasharray="3"/></g><g transform="translate(-14,-54) scale(1,1)"><path fill="none" stroke="#000000" d="M 539.790482243984 1141.837325142376 L 544 1152 L 548.209517756016 1141.837325142376" stroke-miterlimit="10"/></g><g transform="translate(-14,-54) scale(1,1)"><rect fill="#C0C0C0" stroke="none" x="1519" y="159" width="208" height="15" opacity="0.2"/></g><g transform="translate(-14,-54) scale(1,1)"><rect fill="#C0C0C0" stroke="none" x="1519" y="173" width="520" height="242" opacity="0.2"/></g><g transform="translate(-14,-54) scale(1,1)"><rect fill="#cbeafa" stroke="none" x="1512" y="167" width="520" height="241"/></g><g transform="translate(-14,-54) scale(1,1)"><path fill="none" stroke="#000000" d="M 1512 167 L 2032 167 L 2032 408 L 1512 408 L 1512 167 Z Z" stroke-miterlimit="10"/></g><g transform="translate(-14,-54) scale(1,1)"><rect fill="#cbeafa" stroke="none" x="1512" y="152" width="208" height="15"/></g><g transform="translate(-14,-54) scale(1,1)"><path fill="none" stroke="#000000" d="M 1512 152 L 1720 152 L 1720 167 L 1512 167 L 1512 152 Z Z" stroke-miterlimit="10"/></g><g transform="translate(-14,-54) scale(1,1)"><rect fill="#cbeafa" stroke="none" x="1512" y="166" width="520" height="242"/></g><g transform="translate(-14,-54) scale(1,1)"><path fill="none" stroke="#000000" d="M 1512 166 L 2032 166 L 2032 408 L 1512 408 L 1512 166 Z Z" stroke-miterlimit="10"/></g><g transform="translate(-14,-54) scale(1,1)"><g><path fill="none" stroke="none"/><text fill="#000000" stroke="none" font-family="Arial" font-size="13px" font-style="normal" font-weight="bold" text-decoration="none" x="1753.2109375" y="186.5">Spring</text></g></g><g transform="translate(-14,-54) scale(1,1)"><rect fill="#C0C0C0" stroke="none" x="1567" y="191" width="141.22998046875" height="55" opacity="0.2"/></g><g transform="translate(-14,-54) scale(1,1)"><rect fill="#ffc082" stroke="none" x="1560" y="184" width="141.22998046875" height="55"/></g><g transform="translate(-14,-54) scale(1,1)"><path fill="none" stroke="#000000" d="M 1560 184 L 1701.22998046875 184 L 1701.22998046875 239 L 1560 239 L 1560 184 Z Z" stroke-miterlimit="10"/></g><g transform="translate(-14,-54) scale(1,1)"><g><path fill="none" stroke="none"/><text fill="#000000" stroke="none" font-family="Arial" font-size="13px" font-style="normal" font-weight="bold" text-decoration="none" x="1612.194091796875" y="203.5">Assert</text></g></g><g transform="translate(-14,-54) scale(1,1)"><rect fill="#C0C0C0" stroke="none" x="1567" y="255" width="141.22998046875" height="55" opacity="0.2"/></g><g transform="translate(-14,-54) scale(1,1)"><rect fill="#b5e6ce" stroke="none" x="1560" y="248" width="141.22998046875" height="55"/></g><g transform="translate(-14,-54) scale(1,1)"><path fill="none" stroke="#000000" d="M 1560 248 L 1701.22998046875 248 L 1701.22998046875 303 L 1560 303 L 1560 248 Z Z" stroke-miterlimit="10"/></g><g transform="translate(-14,-54) scale(1,1)"><path fill="#b5e6ce" stroke="none" d="M 1675.22998046875 265 C 1675.22998046875 260.0294368 1679.25941726875 256 1684.22998046875 256 C 1689.20054366875 256 1693.22998046875 260.0294368 1693.22998046875 265 C 1693.22998046875 269.9705632 1689.20054366875 274 1684.22998046875 274 C 1679.25941726875 274 1675.22998046875 269.9705632 1675.22998046875 265 Z"/></g><g transform="translate(-14,-54) scale(1,1)"><path fill="none" stroke="#000000" d="M 1675.22998046875 265 C 1675.22998046875 260.0294368 1679.25941726875 256 1684.22998046875 256 C 1689.20054366875 256 1693.22998046875 260.0294368 1693.22998046875 265 C 1693.22998046875 269.9705632 1689.20054366875 274 1684.22998046875 274 C 1679.25941726875 274 1675.22998046875 269.9705632 1675.22998046875 265 Z" stroke-miterlimit="10"/></g><g transform="translate(-14,-54) scale(1,1)"><g><path fill="none" stroke="none"/><text fill="#000000" stroke="none" font-family="Arial" font-size="13px" font-style="normal" font-weight="bold" text-decoration="none" x="1600.911376953125" y="267.5">Model</text></g></g><g transform="translate(-14,-54) scale(1,1)"><rect fill="#C0C0C0" stroke="none" x="1567" y="319" width="141.22998046875" height="55" opacity="0.2"/></g><g transform="translate(-14,-54) scale(1,1)"><rect fill="#b5e6ce" stroke="none" x="1560" y="312" width="141.22998046875" height="55"/></g><g transform="translate(-14,-54) scale(1,1)"><path fill="none" stroke="#000000" d="M 1560 312 L 1701.22998046875 312 L 1701.22998046875 367 L 1560 367 L 1560 312 Z Z" stroke-miterlimit="10"/></g><g transform="translate(-14,-54) scale(1,1)"><path fill="#b5e6ce" stroke="none" d="M 1675.22998046875 329 C 1675.22998046875 324.0294368 1679.25941726875 320 1684.22998046875 320 C 1689.20054366875 320 1693.22998046875 324.0294368 1693.22998046875 329 C 1693.22998046875 333.9705632 1689.20054366875 338 1684.22998046875 338 C 1679.25941726875 338 1675.22998046875 333.9705632 1675.22998046875 329 Z"/></g><g transform="translate(-14,-54) scale(1,1)"><path fill="none" stroke="#000000" d="M 1675.22998046875 329 C 1675.22998046875 324.0294368 1679.25941726875 320 1684.22998046875 320 C 1689.20054366875 320 1693.22998046875 324.0294368 1693.22998046875 329 C 1693.22998046875 333.9705632 1689.20054366875 338 1684.22998046875 338 C 1679.25941726875 338 1675.22998046875 333.9705632 1675.22998046875 329 Z" stroke-miterlimit="10"/></g><g transform="translate(-14,-54) scale(1,1)"><g><path fill="none" stroke="none"/><text fill="#000000" stroke="none" font-family="Arial" font-size="13px" font-style="normal" font-weight="bold" text-decoration="none" x="1600.9208984375" y="331.5">Errors</text></g></g><g transform="translate(-14,-54) scale(1,1)"><rect fill="#C0C0C0" stroke="none" x="1847" y="231" width="141.22998046875" height="55" opacity="0.2"/></g><g transform="translate(-14,-54) scale(1,1)"><rect fill="#b5e6ce" stroke="none" x="1840" y="224" width="141.22998046875" height="55"/></g><g transform="translate(-14,-54) scale(1,1)"><path fill="none" stroke="#000000" d="M 1840 224 L 1981.22998046875 224 L 1981.22998046875 279 L 1840 279 L 1840 224 Z Z" stroke-miterlimit="10"/></g><g transform="translate(-14,-54) scale(1,1)"><path fill="#b5e6ce" stroke="none" d="M 1955.22998046875 241 C 1955.22998046875 236.0294368 1959.25941726875 232 1964.22998046875 232 C 1969.20054366875 232 1973.22998046875 236.0294368 1973.22998046875 241 C 1973.22998046875 245.9705632 1969.20054366875 250 1964.22998046875 250 C 1959.25941726875 250 1955.22998046875 245.9705632 1955.22998046875 241 Z"/></g><g transform="translate(-14,-54) scale(1,1)"><path fill="none" stroke="#000000" d="M 1955.22998046875 241 C 1955.22998046875 236.0294368 1959.25941726875 232 1964.22998046875 232 C 1969.20054366875 232 1973.22998046875 236.0294368 1973.22998046875 241 C 1973.22998046875 245.9705632 1969.20054366875 250 1964.22998046875 250 C 1959.25941726875 250 1955.22998046875 245.9705632 1955.22998046875 241 Z" stroke-miterlimit="10"/></g><g transform="translate(-14,-54) scale(1,1)"><g><path fill="none" stroke="none"/><text fill="#000000" stroke="none" font-family="Arial" font-size="13px" font-style="normal" font-weight="bold" text-decoration="none" x="1865.37548828125" y="243.5">Streamable</text></g></g><g transform="translate(-14,-54) scale(1,1)"><rect fill="#C0C0C0" stroke="none" x="1847" y="311" width="141.22998046875" height="55" opacity="0.2"/></g><g transform="translate(-14,-54) scale(1,1)"><rect fill="#b5e6ce" stroke="none" x="1840" y="304" width="141.22998046875" height="55"/></g><g transform="translate(-14,-54) scale(1,1)"><path fill="none" stroke="#000000" d="M 1840 304 L 1981.22998046875 304 L 1981.22998046875 359 L 1840 359 L 1840 304 Z Z" stroke-miterlimit="10"/></g><g transform="translate(-14,-54) scale(1,1)"><path fill="#b5e6ce" stroke="none" d="M 1955.22998046875 321 C 1955.22998046875 316.0294368 1959.25941726875 312 1964.22998046875 312 C 1969.20054366875 312 1973.22998046875 316.0294368 1973.22998046875 321 C 1973.22998046875 325.9705632 1969.20054366875 330 1964.22998046875 330 C 1959.25941726875 330 1955.22998046875 325.9705632 1955.22998046875 321 Z"/></g><g transform="translate(-14,-54) scale(1,1)"><path fill="none" stroke="#000000" d="M 1955.22998046875 321 C 1955.22998046875 316.0294368 1959.25941726875 312 1964.22998046875 312 C 1969.20054366875 312 1973.22998046875 316.0294368 1973.22998046875 321 C 1973.22998046875 325.9705632 1969.20054366875 330 1964.22998046875 330 C 1959.25941726875 330 1955.22998046875 325.9705632 1955.22998046875 321 Z" stroke-miterlimit="10"/></g><g transform="translate(-14,-54) scale(1,1)"><g><path fill="none" stroke="none"/><text fill="#000000" stroke="none" font-family="Arial" font-size="13px" font-style="normal" font-weight="bold" text-decoration="none" x="1853.457763671875" y="323.5">CrudRepository</text></g></g><g transform="translate(-14,-54) scale(1,1)"><path fill="none" stroke="#000000" d="M 1319 216 L 1560 216" stroke-miterlimit="10" stroke-dasharray="3"/></g><g transform="translate(-14,-54) scale(1,1)"><path fill="none" stroke="#000000" d="M 1549.837325142376 220.209517756016 L 1560 216 L 1549.837325142376 211.790482243984" stroke-miterlimit="10"/></g><g transform="translate(-14,-54) scale(1,1)"><path fill="none" stroke="#000000" d="M 1319 276 L 1560 276" stroke-miterlimit="10" stroke-dasharray="3"/></g><g transform="translate(-14,-54) scale(1,1)"><path fill="none" stroke="#000000" d="M 1549.837325142376 280.209517756016 L 1560 276 L 1549.837325142376 271.790482243984" stroke-miterlimit="10"/></g><g transform="translate(-14,-54) scale(1,1)"><path fill="none" stroke="#000000" d="M 1319 330 L 1560 330" stroke-miterlimit="10" stroke-dasharray="3"/></g><g transform="translate(-14,-54) scale(1,1)"><path fill="none" stroke="#000000" d="M 1549.837325142376 334.209517756016 L 1560 330 L 1549.837325142376 325.790482243984" stroke-miterlimit="10"/></g><g transform="translate(-14,-54) scale(1,1)"><path fill="none" stroke="#000000" d="M 688 552 L 688 152 L 1424 152 L 1424 191 L 1560 191" stroke-miterlimit="10" stroke-dasharray="3"/></g><g transform="translate(-14,-54) scale(1,1)"><path fill="none" stroke="#000000" d="M 1549.837325142376 195.209517756016 L 1560 191 L 1549.837325142376 186.790482243984" stroke-miterlimit="10"/></g><g transform="translate(-14,-54) scale(1,1)"><path fill="none" stroke="#000000" d="M 1426 594 L 1776 594 L 1776 224 L 1701 224" stroke-miterlimit="10" stroke-dasharray="3"/></g><g transform="translate(-14,-54) scale(1,1)"><path fill="none" stroke="#000000" d="M 1711.162674857624 219.790482243984 L 1701 224 L 1711.162674857624 228.209517756016" stroke-miterlimit="10"/></g><g transform="translate(-14,-54) scale(1,1)"><path fill="none" stroke="#000000" d="M 1426 632 L 1816 632 L 1816 256 L 1840 256" stroke-miterlimit="10" stroke-dasharray="3"/></g><g transform="translate(-14,-54) scale(1,1)"><path fill="none" stroke="#000000" d="M 1829.837325142376 260.209517756016 L 1840 256 L 1829.837325142376 251.790482243984" stroke-miterlimit="10"/></g><g transform="translate(-14,-54) scale(1,1)"><path fill="none" stroke="#000000" d="M 1215 816 L 1910 816 L 1910 359" stroke-miterlimit="10" stroke-dasharray="3"/></g><g transform="translate(-14,-54) scale(1,1)"><path fill="none" stroke="#000000" d="M 1914.2095177560159 369.16267485762415 L 1910 359 L 1905.7904822439841 369.16267485762415" stroke-miterlimit="10"/></g><g transform="translate(-14,-54) scale(1,1)"><rect fill="#C0C0C0" stroke="none" x="79" y="391" width="380.76953125" height="100" opacity="0.2"/></g><g transform="translate(-14,-54) scale(1,1)"><rect fill="#ffc082" stroke="none" x="72" y="384" width="380.76953125" height="100"/></g><g transform="translate(-14,-54) scale(1,1)"><path fill="none" stroke="#000000" d="M 72 384 L 452.76953125 384 L 452.76953125 484 L 72 484 L 72 384 Z Z" stroke-miterlimit="10"/></g><g transform="translate(-14,-54) scale(1,1)"><path fill="none" stroke="#000000" d="M 72 409 L 452.76953125 409" stroke-miterlimit="10"/></g><g transform="translate(-14,-54) scale(1,1)"><path fill="none" stroke="#000000" d="M 72 432 L 452.76953125 432" stroke-miterlimit="10"/></g><g transform="translate(-14,-54) scale(1,1)"><g><path fill="none" stroke="none"/><text fill="#000000" stroke="none" font-family="Arial" font-size="13px" font-style="normal" font-weight="bold" text-decoration="none" x="236.01025390625" y="403.5">Message</text></g></g><g transform="translate(-14,-54) scale(1,1)"><g><path fill="none" stroke="none"/><text fill="#000000" stroke="none" font-family="Arial" font-size="13px" font-style="normal" font-weight="normal" text-decoration="none" x="77" y="426.5">+type: Type</text></g></g><g transform="translate(-14,-54) scale(1,1)"><g><path fill="none" stroke="none"/><text fill="#000000" stroke="none" font-family="Arial" font-size="13px" font-style="normal" font-weight="normal" text-decoration="none" x="77" y="449.5">+markAsRead()</text></g></g><g transform="translate(-14,-54) scale(1,1)"><g><path fill="none" stroke="none"/><text fill="#000000" stroke="none" font-family="Arial" font-size="13px" font-style="normal" font-weight="normal" text-decoration="none" x="77" y="464.5">+Message(recipient: Account, author: Account, message: String)</text></g></g><g transform="translate(-14,-54) scale(1,1)"><g><path fill="none" stroke="none"/><text fill="#000000" stroke="none" font-family="Arial" font-size="13px" font-style="normal" font-weight="normal" text-decoration="none" x="77" y="479.5">+delete()</text></g></g><g transform="translate(-14,-54) scale(1,1)"><rect fill="#C0C0C0" stroke="none" x="527" y="399" width="159.6689453125" height="90" opacity="0.2"/></g><g transform="translate(-14,-54) scale(1,1)"><rect fill="#ffc082" stroke="none" x="520" y="392" width="159.6689453125" height="90"/></g><g transform="translate(-14,-54) scale(1,1)"><path fill="none" stroke="#000000" d="M 520 392 L 679.6689453125 392 L 679.6689453125 482 L 520 482 L 520 392 Z Z" stroke-miterlimit="10"/></g><g transform="translate(-14,-54) scale(1,1)"><path fill="none" stroke="#000000" d="M 520 430 L 679.6689453125 430" stroke-miterlimit="10"/></g><g transform="translate(-14,-54) scale(1,1)"><g><path fill="none" stroke="none"/><text fill="#000000" stroke="none" font-family="Arial" font-size="13px" font-style="normal" font-weight="normal" text-decoration="none" x="556.470458984375" y="409.5">«enumeration»</text></g></g><g transform="translate(-14,-54) scale(1,1)"><g><path fill="none" stroke="none"/><text fill="#000000" stroke="none" font-family="Arial" font-size="13px" font-style="normal" font-weight="bold" text-decoration="none" x="585.74267578125" y="424.5">Type</text></g></g><g transform="translate(-14,-54) scale(1,1)"><g><path fill="none" stroke="none"/><text fill="#000000" stroke="none" font-family="Arial" font-size="13px" font-style="normal" font-weight="normal" text-decoration="none" x="525" y="447.5">SENT</text></g></g><g transform="translate(-14,-54) scale(1,1)"><g><path fill="none" stroke="none"/><text fill="#000000" stroke="none" font-family="Arial" font-size="13px" font-style="normal" font-weight="normal" text-decoration="none" x="525" y="462.5">READ</text></g></g><g transform="translate(-14,-54) scale(1,1)"><g><path fill="none" stroke="none"/><text fill="#000000" stroke="none" font-family="Arial" font-size="13px" font-style="normal" font-weight="normal" text-decoration="none" x="525" y="477.5">RECIEVED</text></g></g><g transform="translate(-14,-54) scale(1,1)"><path fill="none" stroke="#000000" d="M 289 384 L 289 373" stroke-miterlimit="10"/></g><g transform="translate(-14,-54) scale(1,1)"><path fill="none" stroke="#000000" d="M 293.209517756016 383.16267485762415 L 289 373 L 284.790482243984 383.16267485762415" stroke-miterlimit="10"/></g><g transform="translate(-14,-54) scale(1,1)"><path fill="none" stroke="#000000" d="M 454 436 L 519 436" stroke-miterlimit="10" stroke-dasharray="3"/></g><g transform="translate(-14,-54) scale(1,1)"><path fill="none" stroke="#000000" d="M 508.83732514237585 440.209517756016 L 519 436 L 508.83732514237585 431.790482243984" stroke-miterlimit="10"/></g><g transform="translate(-14,-54) scale(1,1)"><g><path fill="none" stroke="none"/>
<text fill="#000000" stroke="none" font-family="Arial" font-size="13px" font-style="normal" font-weight="normal" text-decoration="none" x="461" y="450">&lt;&lt;use&gt;&gt;</text></g></g></g></svg>