<svg version="1.1" xmlns="http://www.w3.org/2000/svg" xmlns:xlink="http://www.w3.org/1999/xlink" width="1204" height="796"><defs/><g><g transform="translate(-78,-6) scale(1,1)"><path fill="none" stroke="#000000" d="M 88 16 L 1272 16 L 1272 792 L 88 792 L 88 16" stroke-miterlimit="10"/></g><g transform="translate(-78,-6) scale(1,1)"><path fill="#ffffff" stroke="none" d="M 88 16 L 88 38 L 278.88427734375 38 L 289.88427734375 27 L 289.88427734375 16 L 88 16"/></g><g transform="translate(-78,-6) scale(1,1)"><path fill="none" stroke="#000000" d="M 88 16 L 88 38 L 278.88427734375 38 L 289.88427734375 27 L 289.88427734375 16 L 88 16 L 88 16" stroke-miterlimit="10"/></g><g transform="translate(-78,-6) scale(1,1)"><g><path fill="none" stroke="none"/><text fill="#000000" stroke="none" font-family="Arial" font-size="13px" font-style="normal" font-weight="normal" text-decoration="none" x="158.97900390625" y="33.5">SEQ_Staff</text></g></g><g transform="translate(-78,-6) scale(1,1)"><g><path fill="none" stroke="none"/><text fill="#000000" stroke="none" font-family="Arial" font-size="13px" font-style="normal" font-weight="bold" text-decoration="none" x="93" y="33.5">interaction</text></g></g><g transform="translate(-78,-6) scale(1,1)"><rect fill="#ffffff" stroke="none" x="112" y="288" width="1120" height="248"/></g><g transform="translate(-78,-6) scale(1,1)"><path fill="none" stroke="#000000" d="M 112 288 L 1232 288 L 1232 536 L 112 536 L 112 288 Z Z" stroke-miterlimit="10"/></g><g transform="translate(-78,-6) scale(1,1)"><rect fill="#aef6d2" stroke="none" x="221" y="247" width="13" height="481"/></g><g transform="translate(-78,-6) scale(1,1)"><path fill="none" stroke="#000000" d="M 221 247 L 234 247 L 234 728 L 221 728 L 221 247 Z Z" stroke-miterlimit="10"/></g><g transform="translate(-78,-6) scale(1,1)"><rect fill="#C0C0C0" stroke="none" x="159" y="47" width="150.4599609375" height="39" opacity="0.2"/></g><g transform="translate(-78,-6) scale(1,1)"><rect fill="#aef6d2" stroke="none" x="152" y="40" width="150.4599609375" height="39"/></g><g transform="translate(-78,-6) scale(1,1)"><path fill="none" stroke="#000000" d="M 152 40 L 302.4599609375 40 L 302.4599609375 79 L 152 79 L 152 40 Z Z" stroke-miterlimit="10"/></g><g transform="translate(-78,-6) scale(1,1)"><g><path fill="none" stroke="none"/><text fill="#000000" stroke="none" font-family="Arial" font-size="13px" font-style="normal" font-weight="bold" text-decoration="none" x="213.50634765625" y="59.5">User</text></g></g><g transform="translate(-78,-6) scale(1,1)"><path fill="none" stroke="#000000" d="M 228.5 80 L 228.5 792" stroke-miterlimit="10" stroke-dasharray="3"/></g><g transform="translate(-78,-6) scale(1,1)"><rect fill="#C0C0C0" stroke="none" x="393" y="47" width="150.4599609375" height="39" opacity="0.2"/></g><g transform="translate(-78,-6) scale(1,1)"><rect fill="#aef6d2" stroke="none" x="386" y="40" width="150.4599609375" height="39"/></g><g transform="translate(-78,-6) scale(1,1)"><path fill="none" stroke="#000000" d="M 386 40 L 536.4599609375 40 L 536.4599609375 79 L 386 79 L 386 40 Z Z" stroke-miterlimit="10"/></g><g transform="translate(-78,-6) scale(1,1)"><g><path fill="none" stroke="none"/><text fill="#000000" stroke="none" font-family="Arial" font-size="13px" font-style="normal" font-weight="bold" text-decoration="none" x="409.56640625" y="59.5">AccountController</text></g></g><g transform="translate(-78,-6) scale(1,1)"><path fill="none" stroke="#000000" d="M 462.5 80 L 462.5 792" stroke-miterlimit="10" stroke-dasharray="3"/></g><g transform="translate(-78,-6) scale(1,1)"><rect fill="#C0C0C0" stroke="none" x="627" y="47" width="150.4599609375" height="39" opacity="0.2"/></g><g transform="translate(-78,-6) scale(1,1)"><rect fill="#aef6d2" stroke="none" x="620" y="40" width="150.4599609375" height="39"/></g><g transform="translate(-78,-6) scale(1,1)"><path fill="none" stroke="#000000" d="M 620 40 L 770.4599609375 40 L 770.4599609375 79 L 620 79 L 620 40 Z Z" stroke-miterlimit="10"/></g><g transform="translate(-78,-6) scale(1,1)"><g><path fill="none" stroke="none"/><text fill="#000000" stroke="none" font-family="Arial" font-size="13px" font-style="normal" font-weight="bold" text-decoration="none" x="633.8037109375" y="59.5">AccountManagement</text></g></g><g transform="translate(-78,-6) scale(1,1)"><path fill="none" stroke="#000000" d="M 696.5 80 L 696.5 792" stroke-miterlimit="10" stroke-dasharray="3"/></g><g transform="translate(-78,-6) scale(1,1)"><rect fill="#C0C0C0" stroke="none" x="861" y="47" width="150.4599609375" height="39" opacity="0.2"/></g><g transform="translate(-78,-6) scale(1,1)"><rect fill="#aef6d2" stroke="none" x="854" y="40" width="150.4599609375" height="39"/></g><g transform="translate(-78,-6) scale(1,1)"><path fill="none" stroke="#000000" d="M 854 40 L 1004.4599609375 40 L 1004.4599609375 79 L 854 79 L 854 40 Z Z" stroke-miterlimit="10"/></g><g transform="translate(-78,-6) scale(1,1)"><g><path fill="none" stroke="none"/><text fill="#000000" stroke="none" font-family="Arial" font-size="13px" font-style="normal" font-weight="bold" text-decoration="none" x="898.87548828125" y="59.5">Salespoint</text></g></g><g transform="translate(-78,-6) scale(1,1)"><path fill="none" stroke="#000000" d="M 930.5 80 L 930.5 792" stroke-miterlimit="10" stroke-dasharray="3"/></g><g transform="translate(-78,-6) scale(1,1)"><rect fill="#C0C0C0" stroke="none" x="1095" y="47" width="150.4599609375" height="39" opacity="0.2"/></g><g transform="translate(-78,-6) scale(1,1)"><rect fill="#aef6d2" stroke="none" x="1088" y="40" width="150.4599609375" height="39"/></g><g transform="translate(-78,-6) scale(1,1)"><path fill="none" stroke="#000000" d="M 1088 40 L 1238.4599609375 40 L 1238.4599609375 79 L 1088 79 L 1088 40 Z Z" stroke-miterlimit="10"/></g><g transform="translate(-78,-6) scale(1,1)"><g><path fill="none" stroke="none"/><text fill="#000000" stroke="none" font-family="Arial" font-size="13px" font-style="normal" font-weight="bold" text-decoration="none" x="1144.44091796875" y="59.5">Spring</text></g></g><g transform="translate(-78,-6) scale(1,1)"><path fill="none" stroke="#000000" d="M 1164.5 80 L 1164.5 792" stroke-miterlimit="10" stroke-dasharray="3"/></g><g transform="translate(-78,-6) scale(1,1)"><rect fill="#ffffff" stroke="none" x="316" y="204.5" width="14" height="14"/></g><g transform="translate(-78,-6) scale(1,1)"><path fill="none" stroke="#000000" d="M 316 204.5 L 330 204.5 L 330 218.5 L 316 218.5 L 316 204.5 Z Z" stroke-miterlimit="10"/></g><g transform="translate(-78,-6) scale(1,1)"><g><path fill="none" stroke="none"/><text fill="#000000" stroke="none" font-family="Arial" font-size="13px" font-style="normal" font-weight="normal" text-decoration="none" x="125" y="418">[Else]</text></g></g><g transform="translate(-78,-6) scale(1,1)"><rect fill="#aef6d2" stroke="none" x="456" y="408" width="16" height="119"/></g><g transform="translate(-78,-6) scale(1,1)"><path fill="none" stroke="#000000" d="M 456 408 L 472 408 L 472 527 L 456 527 L 456 408 Z Z" stroke-miterlimit="10"/></g><g transform="translate(-78,-6) scale(1,1)"><rect fill="#aef6d2" stroke="none" x="120" y="239.5" width="14" height="14"/></g><g transform="translate(-78,-6) scale(1,1)"><path fill="none" stroke="#000000" d="M 120 239.5 L 134 239.5 L 134 253.5 L 120 253.5 L 120 239.5 Z Z" stroke-miterlimit="10"/></g><g transform="translate(-78,-6) scale(1,1)"><g><path fill="none" stroke="none"/><text fill="#000000" stroke="none" font-family="Arial" font-size="13px" font-style="normal" font-weight="normal" text-decoration="none" x="125" y="346">[Errors in</text><text fill="#000000" stroke="none" font-family="Arial" font-size="13px" font-style="normal" font-weight="normal" text-decoration="none" x="125" y="359">RegistrationForm]</text></g></g><g transform="translate(-78,-6) scale(1,1)"><path fill="#ffffff" stroke="none" d="M 112 288 L 141 288 L 151 298 L 151 311 L 112 311 L 112 288"/></g><g transform="translate(-78,-6) scale(1,1)"><path fill="none" stroke="#000000" d="M 112 288 L 141 288 L 151 298 L 151 311 L 112 311 L 112 288 L 112 288" stroke-miterlimit="10"/></g><g transform="translate(-78,-6) scale(1,1)"><path fill="none" stroke="#000000" d="M 141 288 L 141 298 L 151 298 L 141 288" stroke-miterlimit="10"/></g><g transform="translate(-78,-6) scale(1,1)"><g><path fill="none" stroke="none"/><text fill="#000000" stroke="none" font-family="Arial" font-size="13px" font-style="normal" font-weight="normal" text-decoration="none" x="117" y="306">alt</text></g></g><g transform="translate(-78,-6) scale(1,1)"><path fill="none" stroke="#000000" d="M 330 212 L 455 212" stroke-miterlimit="10"/></g><g transform="translate(-78,-6) scale(1,1)"><path fill="#000000" stroke="none" d="M 444.83732514237585 216.209517756016 L 455 212 L 444.83732514237585 207.790482243984"/></g><g transform="translate(-78,-6) scale(1,1)"><path fill="none" stroke="#000000" d="M 444.83732514237585 216.209517756016 L 455 212 L 444.83732514237585 207.790482243984 L 444.83732514237585 216.209517756016" stroke-miterlimit="10"/></g><g transform="translate(-78,-6) scale(1,1)"><g><path fill="none" stroke="none"/><text fill="#000000" stroke="none" font-family="Arial" font-size="13px" font-style="normal" font-weight="normal" text-decoration="none" x="357.197265625" y="208.5">1 : app start</text></g></g><g transform="translate(-78,-6) scale(1,1)"><rect fill="#aef6d2" stroke="none" x="455" y="212" width="13" height="60"/></g><g transform="translate(-78,-6) scale(1,1)"><path fill="none" stroke="#000000" d="M 455 212 L 468 212 L 468 272 L 455 272 L 455 212 Z Z" stroke-miterlimit="10"/></g><g transform="translate(-78,-6) scale(1,1)"><path fill="none" stroke="#000000" d="M 468 223 L 689 223" stroke-miterlimit="10"/></g><g transform="translate(-78,-6) scale(1,1)"><path fill="#000000" stroke="none" d="M 678.8373251423759 227.209517756016 L 689 223 L 678.8373251423758 218.790482243984"/></g><g transform="translate(-78,-6) scale(1,1)"><path fill="none" stroke="#000000" d="M 678.8373251423759 227.209517756016 L 689 223 L 678.8373251423758 218.790482243984 L 678.8373251423759 227.209517756016" stroke-miterlimit="10"/></g><g transform="translate(-78,-6) scale(1,1)"><g><path fill="none" stroke="none"/><text fill="#000000" stroke="none" font-family="Arial" font-size="13px" font-style="normal" font-weight="normal" text-decoration="none" x="545.3681640625" y="219.5">2 : initialize</text></g></g><g transform="translate(-78,-6) scale(1,1)"><rect fill="#aef6d2" stroke="none" x="689" y="223" width="13" height="28"/></g><g transform="translate(-78,-6) scale(1,1)"><path fill="none" stroke="#000000" d="M 689 223 L 702 223 L 702 251 L 689 251 L 689 223 Z Z" stroke-miterlimit="10"/></g><g transform="translate(-78,-6) scale(1,1)"><path fill="none" stroke="#000000" d="M 689 243 L 468 243" stroke-miterlimit="10" stroke-dasharray="3"/></g><g transform="translate(-78,-6) scale(1,1)"><path fill="none" stroke="#000000" d="M 478.16267485762415 238.790482243984 L 468 243 L 478.16267485762415 247.209517756016" stroke-miterlimit="10"/></g><g transform="translate(-78,-6) scale(1,1)"><g><path fill="none" stroke="none"/><text fill="#000000" stroke="none" font-family="Arial" font-size="13px" font-style="normal" font-weight="normal" text-decoration="none" x="565.68359375" y="259.5">3 : .</text></g></g><g transform="translate(-78,-6) scale(1,1)"><path fill="none" stroke="#000000" d="M 134 247 L 221 247" stroke-miterlimit="10"/></g><g transform="translate(-78,-6) scale(1,1)"><path fill="#000000" stroke="none" d="M 210.83732514237585 251.209517756016 L 221 247 L 210.83732514237585 242.790482243984"/></g><g transform="translate(-78,-6) scale(1,1)"><path fill="none" stroke="#000000" d="M 210.83732514237585 251.209517756016 L 221 247 L 210.83732514237585 242.790482243984 L 210.83732514237585 251.209517756016" stroke-miterlimit="10"/></g><g transform="translate(-78,-6) scale(1,1)"><g><path fill="none" stroke="none"/><text fill="#000000" stroke="none" font-family="Arial" font-size="13px" font-style="normal" font-weight="normal" text-decoration="none" x="165.68359375" y="243.5">4 : .</text></g></g><g transform="translate(-78,-6) scale(1,1)"><rect fill="#aef6d2" stroke="none" x="221" y="247" width="13" height="481"/></g><g transform="translate(-78,-6) scale(1,1)"><path fill="none" stroke="#000000" d="M 221 247 L 234 247 L 234 728 L 221 728 L 221 247 Z Z" stroke-miterlimit="10"/></g><g transform="translate(-78,-6) scale(1,1)"><path fill="none" stroke="#000000" d="M 234 327 L 455 327" stroke-miterlimit="10"/></g><g transform="translate(-78,-6) scale(1,1)"><path fill="#000000" stroke="none" d="M 444.83732514237585 331.209517756016 L 455 327 L 444.83732514237585 322.790482243984"/></g><g transform="translate(-78,-6) scale(1,1)"><path fill="none" stroke="#000000" d="M 444.83732514237585 331.209517756016 L 455 327 L 444.83732514237585 322.790482243984 L 444.83732514237585 331.209517756016" stroke-miterlimit="10"/></g><g transform="translate(-78,-6) scale(1,1)"><g><path fill="none" stroke="none"/><text fill="#000000" stroke="none" font-family="Arial" font-size="13px" font-style="normal" font-weight="normal" text-decoration="none" x="280.5" y="323.5">5 : createAccountNew</text></g></g><g transform="translate(-78,-6) scale(1,1)"><rect fill="#aef6d2" stroke="none" x="455" y="327" width="13" height="65"/></g><g transform="translate(-78,-6) scale(1,1)"><path fill="none" stroke="#000000" d="M 455 327 L 468 327 L 468 392 L 455 392 L 455 327 Z Z" stroke-miterlimit="10"/></g><g transform="translate(-78,-6) scale(1,1)"><path fill="none" stroke="#000000" d="M 455 376 L 234 376" stroke-miterlimit="10" stroke-dasharray="3"/></g><g transform="translate(-78,-6) scale(1,1)"><path fill="none" stroke="#000000" d="M 244.16267485762415 371.790482243984 L 234 376 L 244.16267485762415 380.209517756016" stroke-miterlimit="10"/></g><g transform="translate(-78,-6) scale(1,1)"><g><path fill="none" stroke="none"/><text fill="#000000" stroke="none" font-family="Arial" font-size="13px" font-style="normal" font-weight="normal" text-decoration="none" x="278.5" y="392.5">6 : createAccount.html</text></g></g><g transform="translate(-78,-6) scale(1,1)"><path fill="none" stroke="#000000" d="M 462 416 L 689 416" stroke-miterlimit="10"/></g><g transform="translate(-78,-6) scale(1,1)"><path fill="#000000" stroke="none" d="M 678.8373251423759 420.209517756016 L 689 416 L 678.8373251423758 411.790482243984"/></g><g transform="translate(-78,-6) scale(1,1)"><path fill="none" stroke="#000000" d="M 678.8373251423759 420.209517756016 L 689 416 L 678.8373251423758 411.790482243984 L 678.8373251423759 420.209517756016" stroke-miterlimit="10"/></g><g transform="translate(-78,-6) scale(1,1)"><g><path fill="none" stroke="none"/><text fill="#000000" stroke="none" font-family="Arial" font-size="13px" font-style="normal" font-weight="normal" text-decoration="none" x="524.5" y="412.5">7 : createAccount</text></g></g><g transform="translate(-78,-6) scale(1,1)"><rect fill="#aef6d2" stroke="none" x="689" y="416" width="13" height="96"/></g><g transform="translate(-78,-6) scale(1,1)"><path fill="none" stroke="#000000" d="M 689 416 L 702 416 L 702 512 L 689 512 L 689 416 Z Z" stroke-miterlimit="10"/></g><g transform="translate(-78,-6) scale(1,1)"><path fill="none" stroke="#000000" d="M 702 432 L 923 432" stroke-miterlimit="10"/></g><g transform="translate(-78,-6) scale(1,1)"><path fill="#000000" stroke="none" d="M 912.8373251423759 436.209517756016 L 923 432 L 912.8373251423758 427.790482243984"/></g><g transform="translate(-78,-6) scale(1,1)"><path fill="none" stroke="#000000" d="M 912.8373251423759 436.209517756016 L 923 432 L 912.8373251423758 427.790482243984 L 912.8373251423759 436.209517756016" stroke-miterlimit="10"/></g><g transform="translate(-78,-6) scale(1,1)"><g><path fill="none" stroke="none"/><text fill="#000000" stroke="none" font-family="Arial" font-size="13px" font-style="normal" font-weight="normal" text-decoration="none" x="733.5" y="428.5">8 : create new userAccount</text></g></g><g transform="translate(-78,-6) scale(1,1)"><rect fill="#aef6d2" stroke="none" x="923" y="432" width="13" height="64"/></g><g transform="translate(-78,-6) scale(1,1)"><path fill="none" stroke="#000000" d="M 923 432 L 936 432 L 936 496 L 923 496 L 923 432 Z Z" stroke-miterlimit="10"/></g><g transform="translate(-78,-6) scale(1,1)"><path fill="none" stroke="#000000" d="M 936 440 L 966 440 L 966 460 L 943 460" stroke-miterlimit="10"/></g><g transform="translate(-78,-6) scale(1,1)"><path fill="#000000" stroke="none" d="M 953.1626748576241 455.790482243984 L 943 460 L 953.1626748576241 464.209517756016"/></g><g transform="translate(-78,-6) scale(1,1)"><path fill="none" stroke="#000000" d="M 953.1626748576241 455.790482243984 L 943 460 L 953.1626748576241 464.209517756016 L 953.1626748576241 455.790482243984" stroke-miterlimit="10"/></g><g transform="translate(-78,-6) scale(1,1)"><g><path fill="none" stroke="none"/><text fill="#000000" stroke="none" font-family="Arial" font-size="13px" font-style="normal" font-weight="normal" text-decoration="none" x="967.114990234375" y="455.5">9 : save userAccount</text></g></g><g transform="translate(-78,-6) scale(1,1)"><rect fill="#aef6d2" stroke="none" x="930" y="460" width="13" height="28"/></g><g transform="translate(-78,-6) scale(1,1)"><path fill="none" stroke="#000000" d="M 930 460 L 943 460 L 943 488 L 930 488 L 930 460 Z Z" stroke-miterlimit="10"/></g><g transform="translate(-78,-6) scale(1,1)"><path fill="none" stroke="#000000" d="M 930 480 L 702 480" stroke-miterlimit="10" stroke-dasharray="3"/></g><g transform="translate(-78,-6) scale(1,1)"><path fill="none" stroke="#000000" d="M 712.1626748576241 475.790482243984 L 702 480 L 712.1626748576241 484.209517756016" stroke-miterlimit="10"/></g><g transform="translate(-78,-6) scale(1,1)"><g><path fill="none" stroke="none"/><text fill="#000000" stroke="none" font-family="Arial" font-size="13px" font-style="normal" font-weight="normal" text-decoration="none" x="765.5" y="496.5">10 : UserAccount</text></g></g><g transform="translate(-78,-6) scale(1,1)"><path fill="none" stroke="#000000" d="M 689 496 L 462 496" stroke-miterlimit="10" stroke-dasharray="3"/></g><g transform="translate(-78,-6) scale(1,1)"><path fill="none" stroke="#000000" d="M 472.16267485762415 491.790482243984 L 462 496 L 472.16267485762415 500.209517756016" stroke-miterlimit="10"/></g><g transform="translate(-78,-6) scale(1,1)"><g><path fill="none" stroke="none"/><text fill="#000000" stroke="none" font-family="Arial" font-size="13px" font-style="normal" font-weight="normal" text-decoration="none" x="560.166015625" y="512.5">11 : .</text></g></g><g transform="translate(-78,-6) scale(1,1)"><path fill="none" stroke="#000000" d="M 462 512 L 241 512" stroke-miterlimit="10"/></g><g transform="translate(-78,-6) scale(1,1)"><path fill="#000000" stroke="none" d="M 251.16267485762415 507.790482243984 L 241 512 L 251.16267485762415 516.209517756016"/></g><g transform="translate(-78,-6) scale(1,1)"><path fill="none" stroke="#000000" d="M 251.16267485762415 507.790482243984 L 241 512 L 251.16267485762415 516.209517756016 L 251.16267485762415 507.790482243984" stroke-miterlimit="10"/></g><g transform="translate(-78,-6) scale(1,1)"><g><path fill="none" stroke="none"/><text fill="#000000" stroke="none" font-family="Arial" font-size="13px" font-style="normal" font-weight="normal" text-decoration="none" x="307.864990234375" y="528.5">12 : index.html</text></g></g><g transform="translate(-78,-6) scale(1,1)"><rect fill="#aef6d2" stroke="none" x="228" y="512" width="13" height="28"/></g><g transform="translate(-78,-6) scale(1,1)"><path fill="none" stroke="#000000" d="M 228 512 L 241 512 L 241 540 L 228 540 L 228 512 Z Z" stroke-miterlimit="10"/></g><g transform="translate(-78,-6) scale(1,1)"><path fill="none" stroke="#000000" d="M 234 616 L 455 616" stroke-miterlimit="10"/></g><g transform="translate(-78,-6) scale(1,1)"><path fill="#000000" stroke="none" d="M 444.83732514237585 620.209517756016 L 455 616 L 444.83732514237585 611.790482243984"/></g><g transform="translate(-78,-6) scale(1,1)"><path fill="none" stroke="#000000" d="M 444.83732514237585 620.209517756016 L 455 616 L 444.83732514237585 611.790482243984 L 444.83732514237585 620.209517756016" stroke-miterlimit="10"/></g><g transform="translate(-78,-6) scale(1,1)"><g><path fill="none" stroke="none"/><text fill="#000000" stroke="none" font-family="Arial" font-size="13px" font-style="normal" font-weight="normal" text-decoration="none" x="309.8154296875" y="612.5">13 : register</text></g></g><g transform="translate(-78,-6) scale(1,1)"><rect fill="#aef6d2" stroke="none" x="455" y="616" width="13" height="72"/></g><g transform="translate(-78,-6) scale(1,1)"><path fill="none" stroke="#000000" d="M 455 616 L 468 616 L 468 688 L 455 688 L 455 616 Z Z" stroke-miterlimit="10"/></g><g transform="translate(-78,-6) scale(1,1)"><path fill="none" stroke="#000000" d="M 468 632 L 1157 632" stroke-miterlimit="10"/></g><g transform="translate(-78,-6) scale(1,1)"><path fill="#000000" stroke="none" d="M 1146.837325142376 636.209517756016 L 1157 632 L 1146.837325142376 627.790482243984"/></g><g transform="translate(-78,-6) scale(1,1)"><path fill="none" stroke="#000000" d="M 1146.837325142376 636.209517756016 L 1157 632 L 1146.837325142376 627.790482243984 L 1146.837325142376 636.209517756016" stroke-miterlimit="10"/></g><g transform="translate(-78,-6) scale(1,1)"><g><path fill="none" stroke="none"/><text fill="#000000" stroke="none" font-family="Arial" font-size="13px" font-style="normal" font-weight="normal" text-decoration="none" x="710.5" y="628.5">14 : add RegistrationForm to Model</text></g></g><g transform="translate(-78,-6) scale(1,1)"><rect fill="#aef6d2" stroke="none" x="1157" y="632" width="13" height="32"/></g><g transform="translate(-78,-6) scale(1,1)"><path fill="none" stroke="#000000" d="M 1157 632 L 1170 632 L 1170 664 L 1157 664 L 1157 632 Z Z" stroke-miterlimit="10"/></g><g transform="translate(-78,-6) scale(1,1)"><path fill="none" stroke="#000000" d="M 1157 656 L 468 656" stroke-miterlimit="10" stroke-dasharray="3"/></g><g transform="translate(-78,-6) scale(1,1)"><path fill="none" stroke="#000000" d="M 478.16267485762415 651.790482243984 L 468 656 L 478.16267485762415 660.209517756016" stroke-miterlimit="10"/></g><g transform="translate(-78,-6) scale(1,1)"><g><path fill="none" stroke="none"/><text fill="#000000" stroke="none" font-family="Arial" font-size="13px" font-style="normal" font-weight="normal" text-decoration="none" x="796.68359375" y="672.5">15 : .</text></g></g><g transform="translate(-78,-6) scale(1,1)"><path fill="none" stroke="#000000" d="M 455 680 L 241 680" stroke-miterlimit="10"/></g><g transform="translate(-78,-6) scale(1,1)"><path fill="#000000" stroke="none" d="M 251.16267485762415 675.790482243984 L 241 680 L 251.16267485762415 684.209517756016"/></g><g transform="translate(-78,-6) scale(1,1)"><path fill="none" stroke="#000000" d="M 251.16267485762415 675.790482243984 L 241 680 L 251.16267485762415 684.209517756016 L 251.16267485762415 675.790482243984" stroke-miterlimit="10"/></g><g transform="translate(-78,-6) scale(1,1)"><g><path fill="none" stroke="none"/><text fill="#000000" stroke="none" font-family="Arial" font-size="13px" font-style="normal" font-weight="normal" text-decoration="none" x="298.5" y="696.5">16 : register.html</text></g></g><g transform="translate(-78,-6) scale(1,1)"><rect fill="#aef6d2" stroke="none" x="228" y="680" width="13" height="28"/></g><g transform="translate(-78,-6) scale(1,1)"><path fill="none" stroke="#000000" d="M 228 680 L 241 680 L 241 708 L 228 708 L 228 680 Z Z" stroke-miterlimit="10"/></g></g></svg>
